<svg width="20" height="20" viewBox="0 0 20 20" fill="none" xmlns="http://www.w3.org/2000/svg">
<path d="M9.5 0C5.93814 0 3.04543 2.86494 3.00053 6.41614C1.23468 7.18749 0 8.9486 0 11C0 13.3312 1.59442 15.2874 3.75074 15.8424C4.28559 15.9801 4.83078 15.6581 4.96844 15.1232C5.1061 14.5884 4.78411 14.0432 4.24926 13.9055C2.95512 13.5725 2 12.3965 2 11C2 9.59653 2.96468 8.41587 4.26851 8.08957C4.75509 7.9678 5.08294 7.50471 5.02729 6.99923C5.00928 6.83564 5 6.66909 5 6.5C5 4.01472 7.01472 2 9.5 2C11.576 2 13.326 3.40663 13.8441 5.32051C13.9477 5.7033 14.2654 5.98914 14.6552 6.05324C16.5524 6.36524 18 8.01454 18 10C18 11.6387 17.0144 13.0494 15.5996 13.6676C15.0935 13.8887 14.8625 14.4782 15.0836 14.9843C15.3048 15.4904 15.8943 15.7214 16.4004 15.5003C18.5174 14.5754 20 12.4619 20 10C20 7.23462 18.13 4.90766 15.5856 4.21198C14.66 1.75154 12.2856 0 9.5 0Z" fill="#09244B"/>
<path d="M10.8682 11.9961C11.1423 11.5166 10.9757 10.9058 10.4961 10.6318C10.0166 10.3577 9.40577 10.5243 9.13176 11.0039L7.21725 14.3542C6.79821 15.0876 7.32772 16 8.17232 16H10.2768L9.13176 18.0039C8.85775 18.4834 9.02434 19.0942 9.50386 19.3682C9.98338 19.6423 10.5942 19.4757 10.8682 18.9961L12.7827 15.6458C13.2018 14.9124 12.6723 14 11.8277 14H9.72318L10.8682 11.9961Z" fill="#09244B"/>
</svg>
