<svg width="20" height="20" viewBox="0 0 20 20" fill="none" xmlns="http://www.w3.org/2000/svg">
<path d="M9.5 0C5.93814 0 3.04543 2.86494 3.00053 6.41614C1.23468 7.18749 0 8.9486 0 11C0 12.852 1.00738 14.4675 2.49927 15.3305C2.97733 15.607 3.58906 15.4437 3.86561 14.9656C4.14215 14.4875 3.97879 13.8758 3.50073 13.5993C2.60141 13.079 2 12.1092 2 11C2 9.59653 2.96468 8.41587 4.26851 8.08957C4.75509 7.9678 5.08294 7.50471 5.02729 6.99923C5.00928 6.83564 5 6.66909 5 6.5C5 4.01472 7.01472 2 9.5 2C11.576 2 13.326 3.40663 13.8441 5.32051C13.9477 5.7033 14.2654 5.98914 14.6552 6.05324C16.5524 6.36524 18 8.01454 18 10C18 11.3078 17.3732 12.4689 16.3994 13.2005C15.9578 13.5322 15.8687 14.159 16.2005 14.6006C16.5322 15.0422 17.159 15.1312 17.6006 14.7995C19.0555 13.7067 20 11.9637 20 10C20 7.23462 18.13 4.90766 15.5856 4.21198C14.66 1.75154 12.2856 0 9.5 0Z" fill="#09244B"/>
<path d="M7 11C7.55228 11 8 11.4477 8 12V13C8 13.5523 7.55228 14 7 14C6.44772 14 6 13.5523 6 13V12C6 11.4477 6.44772 11 7 11Z" fill="#09244B"/>
<path d="M14 12C14 11.4477 13.5523 11 13 11C12.4477 11 12 11.4477 12 12V13C12 13.5523 12.4477 14 13 14C13.5523 14 14 13.5523 14 13V12Z" fill="#09244B"/>
<path d="M10 13C10.5523 13 11 13.4477 11 14V15C11 15.5523 10.5523 16 10 16C9.44772 16 9 15.5523 9 15V14C9 13.4477 9.44772 13 10 13Z" fill="#09244B"/>
<path d="M10 17C10.5523 17 11 17.4477 11 18V19C11 19.5523 10.5523 20 10 20C9.44772 20 9 19.5523 9 19V18C9 17.4477 9.44772 17 10 17Z" fill="#09244B"/>
<path d="M14 16C14 15.4477 13.5523 15 13 15C12.4477 15 12 15.4477 12 16V17C12 17.5523 12.4477 18 13 18C13.5523 18 14 17.5523 14 17V16Z" fill="#09244B"/>
<path d="M7 15C7.55228 15 8 15.4477 8 16V17C8 17.5523 7.55228 18 7 18C6.44772 18 6 17.5523 6 17V16C6 15.4477 6.44772 15 7 15Z" fill="#09244B"/>
</svg>
