<svg width="20" height="20" viewBox="0 0 20 20" fill="none" xmlns="http://www.w3.org/2000/svg">
<path d="M9.5 0C5.93814 0 3.04543 2.86494 3.00053 6.41614C1.23468 7.18749 0 8.9486 0 11C0 13.3312 1.59442 15.2874 3.75074 15.8424C4.28559 15.9801 4.83078 15.6581 4.96844 15.1232C5.1061 14.5884 4.78411 14.0432 4.24926 13.9055C2.95512 13.5725 2 12.3965 2 11C2 9.59653 2.96468 8.41587 4.26851 8.08957C4.75509 7.9678 5.08294 7.50471 5.02729 6.99923C5.00928 6.83564 5 6.66909 5 6.5C5 4.01472 7.01472 2 9.5 2C11.576 2 13.326 3.40663 13.8441 5.32051C13.9477 5.7033 14.2654 5.98914 14.6552 6.05324C16.5524 6.36524 18 8.01454 18 10C18 11.308 17.3732 12.4693 16.3994 13.2008C15.9578 13.5325 15.8687 14.1594 16.2004 14.6009C16.5321 15.0425 17.159 15.1316 17.6006 14.7999C19.0557 13.707 20 11.9636 20 10C20 7.23462 18.13 4.90766 15.5856 4.21198C14.66 1.75154 12.2856 0 9.5 0Z" fill="#09244B"/>
<path d="M10 12.5C10 13.3284 9.32843 14 8.5 14C7.67157 14 7 13.3284 7 12.5C7 11.6716 7.67157 11 8.5 11C9.32843 11 10 11.6716 10 12.5Z" fill="#09244B"/>
<path d="M10 16.5C10 17.3284 9.32843 18 8.5 18C7.67157 18 7 17.3284 7 16.5C7 15.6716 7.67157 15 8.5 15C9.32843 15 10 15.6716 10 16.5Z" fill="#09244B"/>
<path d="M12.5 16C13.3284 16 14 15.3284 14 14.5C14 13.6716 13.3284 13 12.5 13C11.6716 13 11 13.6716 11 14.5C11 15.3284 11.6716 16 12.5 16Z" fill="#09244B"/>
<path d="M14 18.5C14 19.3284 13.3284 20 12.5 20C11.6716 20 11 19.3284 11 18.5C11 17.6716 11.6716 17 12.5 17C13.3284 17 14 17.6716 14 18.5Z" fill="#09244B"/>
</svg>
