<svg width="20" height="20" viewBox="0 0 20 20" fill="none" xmlns="http://www.w3.org/2000/svg">
<path d="M9 1C9 0.447715 9.44771 0 10 0C10.5523 0 11 0.447715 11 1V2C11 2.55228 10.5523 3 10 3C9.44771 3 9 2.55228 9 2V1Z" fill="#09244B"/>
<path d="M9 18C9 17.4477 9.44771 17 10 17C10.5523 17 11 17.4477 11 18V19C11 19.5523 10.5523 20 10 20C9.44771 20 9 19.5523 9 19V18Z" fill="#09244B"/>
<path d="M0 10C0 10.5523 0.447716 11 1 11H2C2.55228 11 3 10.5523 3 10C3 9.44771 2.55228 9 2 9H1C0.447716 9 0 9.44771 0 10Z" fill="#09244B"/>
<path d="M18 11C17.4477 11 17 10.5523 17 10C17 9.44771 17.4477 9 18 9H19C19.5523 9 20 9.44771 20 10C20 10.5523 19.5523 11 19 11H18Z" fill="#09244B"/>
<path d="M4.34312 2.92888C3.9526 2.53836 3.31943 2.53836 2.92891 2.92888C2.53838 3.3194 2.53838 3.95257 2.92891 4.34309L3.63601 5.0502C4.02654 5.44072 4.6597 5.44072 5.05023 5.0502C5.44075 4.65968 5.44075 4.02651 5.05023 3.63599L4.34312 2.92888Z" fill="#09244B"/>
<path d="M14.9498 16.364C14.5593 15.9734 14.5593 15.3403 14.9498 14.9498C15.3403 14.5592 15.9735 14.5592 16.364 14.9498L17.0711 15.6569C17.4616 16.0474 17.4616 16.6805 17.0711 17.0711C16.6806 17.4616 16.0474 17.4616 15.6569 17.0711L14.9498 16.364Z" fill="#09244B"/>
<path d="M2.92888 15.6569C2.53835 16.0474 2.53835 16.6806 2.92888 17.0711C3.3194 17.4616 3.95257 17.4616 4.34309 17.0711L5.0502 16.364C5.44072 15.9735 5.44072 15.3403 5.0502 14.9498C4.65968 14.5592 4.02651 14.5592 3.63599 14.9498L2.92888 15.6569Z" fill="#09244B"/>
<path d="M16.364 5.05022C15.9734 5.44074 15.3403 5.44074 14.9498 5.05022C14.5592 4.65969 14.5592 4.02653 14.9498 3.636L15.6569 2.9289C16.0474 2.53837 16.6805 2.53837 17.0711 2.9289C17.4616 3.31942 17.4616 3.95259 17.0711 4.34311L16.364 5.05022Z" fill="#09244B"/>
<path fill-rule="evenodd" clip-rule="evenodd" d="M10 4C6.68629 4 4 6.68629 4 10C4 13.3137 6.68629 16 10 16C13.3137 16 16 13.3137 16 10C16 6.68629 13.3137 4 10 4ZM6 10C6 7.79086 7.79086 6 10 6C12.2091 6 14 7.79086 14 10C14 12.2091 12.2091 14 10 14C7.79086 14 6 12.2091 6 10Z" fill="#09244B"/>
</svg>
