<svg width="20" height="18" viewBox="0 0 20 18" fill="none" xmlns="http://www.w3.org/2000/svg">
<path fill-rule="evenodd" clip-rule="evenodd" d="M8.80082 3.00325C5.57931 3.10832 3 5.75294 3 9C3 9.08519 3.00178 9.17002 3.00531 9.25443C1.2545 9.87084 0 11.5384 0 13.5C0 15.9853 2.01472 18 4.5 18H13.5C16.5376 18 19 15.5376 19 12.5C19 11.62 18.7934 10.7884 18.4261 10.051C19.4036 8.98356 20 7.56143 20 6C20 2.68629 17.3137 0 14 0C11.7778 0 9.83779 1.20805 8.80082 3.00325ZM11.0087 3.34441C12.7533 3.96402 14.1258 5.36804 14.7033 7.1322C15.6449 7.34244 16.4954 7.79389 17.1864 8.41833C17.697 7.74669 18 6.90873 18 6C18 3.79086 16.2091 2 14 2C12.81 2 11.7414 2.51965 11.0087 3.34441ZM5 9C5 6.79086 6.79086 5 9 5C10.937 5 12.5544 6.37778 12.9217 8.20731C13.0099 8.6469 13.3767 8.97423 13.8209 9.01445C15.603 9.17583 17 10.6753 17 12.5C17 14.433 15.433 16 13.5 16H4.5C3.11929 16 2 14.8807 2 13.5C2 12.2182 2.96556 11.1604 4.20847 11.0167C4.7903 10.9494 5.20253 10.3974 5.08188 9.81013C5.02831 9.54934 5 9.2785 5 9Z" fill="#09244B"/>
</svg>
