<svg width="20" height="20" viewBox="0 0 20 20" fill="none" xmlns="http://www.w3.org/2000/svg">
<path fill-rule="evenodd" clip-rule="evenodd" d="M8.5 2C7.77548 2 7.16892 2.51468 7.03002 3.19893C6.92015 3.74018 6.39232 4.08988 5.85108 3.98001C5.30983 3.87015 4.96013 3.34231 5.07 2.80107C5.39437 1.20308 6.80557 0 8.5 0C10.433 0 12 1.567 12 3.5C12 5.433 10.433 7 8.5 7H3C2.44772 7 2 6.55228 2 6C2 5.44772 2.44772 5 3 5H8.5C9.32843 5 10 4.32843 10 3.5C10 2.67157 9.32843 2 8.5 2ZM16.5 6C15.7755 6 15.1689 6.51468 15.03 7.19893C14.9202 7.74018 14.3923 8.08988 13.8511 7.98001C13.3098 7.87015 12.9601 7.34231 13.07 6.80107C13.3944 5.20308 14.8056 4 16.5 4C18.433 4 20 5.567 20 7.5C20 9.433 18.433 11 16.5 11H1C0.447715 11 0 10.5523 0 10C0 9.44772 0.447715 9 1 9H16.5C17.3284 9 18 8.32843 18 7.5C18 6.67157 17.3284 6 16.5 6ZM11.03 16.8011C11.1689 17.4853 11.7755 18 12.5 18C13.3284 18 14 17.3284 14 16.5C14 15.6716 13.3284 15 12.5 15H6C5.44772 15 5 14.5523 5 14C5 13.4477 5.44772 13 6 13H12.5C14.433 13 16 14.567 16 16.5C16 18.433 14.433 20 12.5 20C10.8056 20 9.39437 18.7969 9.07 17.1989C8.96013 16.6577 9.30983 16.1299 9.85108 16.02C10.3923 15.9101 10.9202 16.2598 11.03 16.8011Z" fill="#09244B"/>
</svg>
