<svg width="24" height="24" viewBox="0 0 24 24" fill="none" xmlns="http://www.w3.org/2000/svg">
<path fill-rule="evenodd" clip-rule="evenodd" d="M9.64987 4L6.53876 11H9.98613C10.6755 11 11.1623 11.6754 10.9443 12.3294L9.28825 17.2975L16.5858 10H14.0162C13.2654 10 12.777 9.20987 13.1128 8.53831L15.382 4H9.64987ZM8.08355 2.5998C8.24567 2.23504 8.60738 2 9.0065 2H16.9838C17.7346 2 18.223 2.79011 17.8872 3.46169L15.618 8H18.9759C19.8756 8 20.3263 9.08789 19.69 9.72418L7.73706 21.6772C6.98343 22.4308 5.72769 21.6546 6.06471 20.6436L8.61258 13H5.01539C4.28448 13 3.7956 12.2477 4.09244 11.5798L8.08355 2.5998Z" fill="#09244B"/>
</svg>
